<mxfile host="app.diagrams.net" modified="2024-03-28T07:28:55.758Z" agent="Mozilla/5.0 (Macintosh; Intel Mac OS X 10_15_7) AppleWebKit/537.36 (KHTML, like Gecko) Chrome/122.0.0.0 Safari/537.36" etag="YpT-L2yPspeqXmhEza03" version="23.1.7" type="github">
  <diagram name="第 1 页" id="3o1Iv2JwhsrkfTF9kg7Q">
    <mxGraphModel dx="749" dy="443" grid="0" gridSize="10" guides="1" tooltips="1" connect="1" arrows="1" fold="1" page="1" pageScale="1" pageWidth="827" pageHeight="1169" math="0" shadow="0">
      <root>
        <mxCell id="0" />
        <mxCell id="1" parent="0" />
        <mxCell id="AaakfXUF925wmJockzb4-39" value="SaaS生态（行业数字化层）- 两大客户群体" style="rounded=0;whiteSpace=wrap;html=1;verticalAlign=top;fillColor=#f5f5f5;fontColor=#333333;strokeColor=#666666;fontSize=10;strokeWidth=0.2;" vertex="1" parent="1">
          <mxGeometry x="140" y="250" width="550" height="130" as="geometry" />
        </mxCell>
        <mxCell id="AaakfXUF925wmJockzb4-1" value="贸易企业SaaS" style="rounded=0;whiteSpace=wrap;html=1;verticalAlign=top;fillColor=#fff2cc;strokeColor=#d6b656;strokeWidth=0.2;" vertex="1" parent="1">
          <mxGeometry x="160" y="280" width="230" height="90" as="geometry" />
        </mxCell>
        <mxCell id="AaakfXUF925wmJockzb4-2" value="销售" style="rounded=0;whiteSpace=wrap;html=1;fontSize=9;strokeWidth=0.2;" vertex="1" parent="1">
          <mxGeometry x="170" y="340" width="60" height="20" as="geometry" />
        </mxCell>
        <mxCell id="AaakfXUF925wmJockzb4-3" value="采购" style="rounded=0;whiteSpace=wrap;html=1;fontSize=9;strokeWidth=0.2;" vertex="1" parent="1">
          <mxGeometry x="320" y="340" width="60" height="20" as="geometry" />
        </mxCell>
        <mxCell id="AaakfXUF925wmJockzb4-4" value="加工&lt;div style=&quot;&quot;&gt;&lt;font color=&quot;#cc0000&quot; style=&quot;font-size: 5px;&quot;&gt;海量加工厂&lt;/font&gt;&lt;/div&gt;" style="rounded=0;whiteSpace=wrap;html=1;fontSize=8;strokeWidth=0.2;" vertex="1" parent="1">
          <mxGeometry x="320" y="310" width="60" height="20" as="geometry" />
        </mxCell>
        <mxCell id="AaakfXUF925wmJockzb4-5" value="进销存" style="rounded=0;whiteSpace=wrap;html=1;fontSize=9;strokeWidth=0.2;" vertex="1" parent="1">
          <mxGeometry x="170" y="310" width="60" height="20" as="geometry" />
        </mxCell>
        <mxCell id="AaakfXUF925wmJockzb4-6" value="报表" style="rounded=0;whiteSpace=wrap;html=1;fontSize=9;strokeWidth=0.2;" vertex="1" parent="1">
          <mxGeometry x="245" y="310" width="60" height="20" as="geometry" />
        </mxCell>
        <mxCell id="AaakfXUF925wmJockzb4-27" style="edgeStyle=orthogonalEdgeStyle;rounded=0;orthogonalLoop=1;jettySize=auto;html=1;exitX=0;exitY=0.5;exitDx=0;exitDy=0;entryX=1;entryY=0.5;entryDx=0;entryDy=0;endSize=2;startSize=2;strokeWidth=0.5;" edge="1" parent="1" source="AaakfXUF925wmJockzb4-7" target="AaakfXUF925wmJockzb4-2">
          <mxGeometry relative="1" as="geometry" />
        </mxCell>
        <mxCell id="AaakfXUF925wmJockzb4-28" style="edgeStyle=orthogonalEdgeStyle;rounded=0;orthogonalLoop=1;jettySize=auto;html=1;exitX=1;exitY=0.5;exitDx=0;exitDy=0;entryX=0;entryY=0.5;entryDx=0;entryDy=0;endSize=2;startSize=2;strokeWidth=0.5;" edge="1" parent="1" source="AaakfXUF925wmJockzb4-7" target="AaakfXUF925wmJockzb4-3">
          <mxGeometry relative="1" as="geometry" />
        </mxCell>
        <mxCell id="AaakfXUF925wmJockzb4-7" value="CRM" style="rounded=0;whiteSpace=wrap;html=1;fontSize=9;strokeWidth=0.2;" vertex="1" parent="1">
          <mxGeometry x="245" y="340" width="60" height="20" as="geometry" />
        </mxCell>
        <mxCell id="AaakfXUF925wmJockzb4-8" value="加工企业SaaS" style="rounded=0;whiteSpace=wrap;html=1;verticalAlign=top;fillColor=#dae8fc;strokeColor=#6c8ebf;strokeWidth=0.2;" vertex="1" parent="1">
          <mxGeometry x="450" y="280" width="230" height="90" as="geometry" />
        </mxCell>
        <mxCell id="AaakfXUF925wmJockzb4-23" value="跟踪" style="edgeStyle=orthogonalEdgeStyle;rounded=0;orthogonalLoop=1;jettySize=auto;html=1;entryX=1;entryY=0.75;entryDx=0;entryDy=0;fontSize=8;endSize=2;startSize=2;strokeWidth=0.5;" edge="1" parent="1" source="AaakfXUF925wmJockzb4-9" target="AaakfXUF925wmJockzb4-4">
          <mxGeometry x="-0.2381" relative="1" as="geometry">
            <Array as="points">
              <mxPoint x="400" y="350" />
              <mxPoint x="400" y="325" />
            </Array>
            <mxPoint as="offset" />
          </mxGeometry>
        </mxCell>
        <mxCell id="AaakfXUF925wmJockzb4-9" value="售后" style="rounded=0;whiteSpace=wrap;html=1;fontSize=9;strokeWidth=0.2;" vertex="1" parent="1">
          <mxGeometry x="460" y="340" width="60" height="20" as="geometry" />
        </mxCell>
        <mxCell id="AaakfXUF925wmJockzb4-10" value="原材采购" style="rounded=0;whiteSpace=wrap;html=1;fontSize=9;strokeWidth=0.2;" vertex="1" parent="1">
          <mxGeometry x="535" y="340" width="60" height="20" as="geometry" />
        </mxCell>
        <mxCell id="AaakfXUF925wmJockzb4-11" value="财务" style="rounded=0;whiteSpace=wrap;html=1;fontSize=9;strokeWidth=0.2;" vertex="1" parent="1">
          <mxGeometry x="610" y="340" width="60" height="20" as="geometry" />
        </mxCell>
        <mxCell id="AaakfXUF925wmJockzb4-12" value="接单引擎" style="rounded=0;whiteSpace=wrap;html=1;fontSize=9;strokeWidth=0.2;" vertex="1" parent="1">
          <mxGeometry x="460" y="310" width="60" height="20" as="geometry" />
        </mxCell>
        <mxCell id="AaakfXUF925wmJockzb4-13" value="智能排产" style="rounded=0;whiteSpace=wrap;html=1;fontSize=9;strokeWidth=0.2;" vertex="1" parent="1">
          <mxGeometry x="535" y="310" width="60" height="20" as="geometry" />
        </mxCell>
        <mxCell id="AaakfXUF925wmJockzb4-14" value="加工过程" style="rounded=0;whiteSpace=wrap;html=1;fontSize=9;strokeWidth=0.2;" vertex="1" parent="1">
          <mxGeometry x="610" y="310" width="60" height="20" as="geometry" />
        </mxCell>
        <mxCell id="AaakfXUF925wmJockzb4-15" value="下单" style="edgeStyle=orthogonalEdgeStyle;rounded=0;orthogonalLoop=1;jettySize=auto;html=1;entryX=0;entryY=0.5;entryDx=0;entryDy=0;fontSize=8;endSize=2;strokeWidth=0.5;" edge="1" parent="1" source="AaakfXUF925wmJockzb4-4" target="AaakfXUF925wmJockzb4-12">
          <mxGeometry relative="1" as="geometry" />
        </mxCell>
        <mxCell id="AaakfXUF925wmJockzb4-16" value="人堆市场（行业平台层）" style="rounded=0;whiteSpace=wrap;html=1;verticalAlign=bottom;fillColor=#ffe6cc;strokeColor=#d79b00;fontSize=10;strokeWidth=0.2;" vertex="1" parent="1">
          <mxGeometry x="140" y="420" width="550" height="90" as="geometry" />
        </mxCell>
        <mxCell id="AaakfXUF925wmJockzb4-19" value="撮合" style="edgeStyle=orthogonalEdgeStyle;rounded=0;orthogonalLoop=1;jettySize=auto;html=1;exitX=1;exitY=0.5;exitDx=0;exitDy=0;startArrow=classic;startFill=1;fontSize=10;endSize=2;startSize=2;labelBackgroundColor=#ffe6cc;strokeWidth=0.5;" edge="1" parent="1" source="AaakfXUF925wmJockzb4-17" target="AaakfXUF925wmJockzb4-18">
          <mxGeometry relative="1" as="geometry" />
        </mxCell>
        <mxCell id="AaakfXUF925wmJockzb4-17" value="卖货" style="rounded=0;whiteSpace=wrap;html=1;fontSize=10;strokeWidth=0.2;" vertex="1" parent="1">
          <mxGeometry x="170" y="440" width="60" height="20" as="geometry" />
        </mxCell>
        <mxCell id="AaakfXUF925wmJockzb4-18" value="买货" style="rounded=0;whiteSpace=wrap;html=1;fontSize=10;strokeWidth=0.2;" vertex="1" parent="1">
          <mxGeometry x="320" y="440" width="60" height="20" as="geometry" />
        </mxCell>
        <mxCell id="AaakfXUF925wmJockzb4-20" value="搜索引擎" style="rounded=0;whiteSpace=wrap;html=1;fontSize=10;fillColor=#fff2cc;strokeColor=#d6b656;strokeWidth=0.2;" vertex="1" parent="1">
          <mxGeometry x="170" y="470" width="70" height="20" as="geometry" />
        </mxCell>
        <mxCell id="AaakfXUF925wmJockzb4-21" value="推荐引擎" style="rounded=0;whiteSpace=wrap;html=1;fontSize=10;fillColor=#fff2cc;strokeColor=#d6b656;strokeWidth=0.2;" vertex="1" parent="1">
          <mxGeometry x="240" y="470" width="70" height="20" as="geometry" />
        </mxCell>
        <mxCell id="AaakfXUF925wmJockzb4-22" value="价格引擎" style="rounded=0;whiteSpace=wrap;html=1;fontSize=10;fillColor=#fff2cc;strokeColor=#d6b656;strokeWidth=0.2;" vertex="1" parent="1">
          <mxGeometry x="310" y="470" width="70" height="20" as="geometry" />
        </mxCell>
        <mxCell id="AaakfXUF925wmJockzb4-24" value="产能预售" style="rounded=0;whiteSpace=wrap;html=1;fontSize=10;strokeWidth=0.2;" vertex="1" parent="1">
          <mxGeometry x="460" y="440" width="60" height="20" as="geometry" />
        </mxCell>
        <mxCell id="AaakfXUF925wmJockzb4-25" value="原材市场" style="rounded=0;whiteSpace=wrap;html=1;fontSize=10;strokeWidth=0.2;" vertex="1" parent="1">
          <mxGeometry x="535" y="440" width="60" height="20" as="geometry" />
        </mxCell>
        <mxCell id="AaakfXUF925wmJockzb4-26" style="edgeStyle=orthogonalEdgeStyle;rounded=0;orthogonalLoop=1;jettySize=auto;html=1;endSize=2;startSize=2;strokeWidth=0.5;" edge="1" parent="1" source="AaakfXUF925wmJockzb4-3" target="AaakfXUF925wmJockzb4-18">
          <mxGeometry relative="1" as="geometry" />
        </mxCell>
        <mxCell id="AaakfXUF925wmJockzb4-30" value="采购渠道" style="edgeLabel;html=1;align=center;verticalAlign=middle;resizable=0;points=[];fontSize=8;" vertex="1" connectable="0" parent="AaakfXUF925wmJockzb4-26">
          <mxGeometry x="-0.1735" y="-1" relative="1" as="geometry">
            <mxPoint x="1" y="7" as="offset" />
          </mxGeometry>
        </mxCell>
        <mxCell id="AaakfXUF925wmJockzb4-29" value="销售渠道" style="edgeStyle=orthogonalEdgeStyle;rounded=0;orthogonalLoop=1;jettySize=auto;html=1;fontSize=8;endSize=2;startSize=2;strokeWidth=0.5;" edge="1" parent="1" source="AaakfXUF925wmJockzb4-2" target="AaakfXUF925wmJockzb4-17">
          <mxGeometry relative="1" as="geometry">
            <mxPoint as="offset" />
          </mxGeometry>
        </mxCell>
        <mxCell id="AaakfXUF925wmJockzb4-32" style="edgeStyle=orthogonalEdgeStyle;rounded=0;orthogonalLoop=1;jettySize=auto;html=1;strokeWidth=0.5;" edge="1" parent="1" source="AaakfXUF925wmJockzb4-10" target="AaakfXUF925wmJockzb4-25">
          <mxGeometry relative="1" as="geometry" />
        </mxCell>
        <mxCell id="AaakfXUF925wmJockzb4-33" value="基础能力层" style="rounded=0;whiteSpace=wrap;html=1;verticalAlign=bottom;fillColor=#f5f5f5;strokeColor=#666666;fontColor=#333333;strokeWidth=0.2;" vertex="1" parent="1">
          <mxGeometry x="710" y="250" width="70" height="260" as="geometry" />
        </mxCell>
        <mxCell id="AaakfXUF925wmJockzb4-34" value="支付" style="rounded=0;whiteSpace=wrap;html=1;fontSize=9;strokeWidth=0.2;" vertex="1" parent="1">
          <mxGeometry x="720" y="280" width="50" height="25" as="geometry" />
        </mxCell>
        <mxCell id="AaakfXUF925wmJockzb4-36" value="仓储" style="rounded=0;whiteSpace=wrap;html=1;fontSize=9;strokeWidth=0.2;" vertex="1" parent="1">
          <mxGeometry x="720" y="390" width="50" height="25" as="geometry" />
        </mxCell>
        <mxCell id="AaakfXUF925wmJockzb4-37" value="金融" style="rounded=0;whiteSpace=wrap;html=1;fontSize=9;strokeWidth=0.2;" vertex="1" parent="1">
          <mxGeometry x="720" y="445" width="50" height="25" as="geometry" />
        </mxCell>
        <mxCell id="AaakfXUF925wmJockzb4-38" value="物流" style="rounded=0;whiteSpace=wrap;html=1;fontSize=9;strokeWidth=0.2;" vertex="1" parent="1">
          <mxGeometry x="720" y="330" width="50" height="25" as="geometry" />
        </mxCell>
        <mxCell id="AaakfXUF925wmJockzb4-40" value="现货指数" style="rounded=0;whiteSpace=wrap;html=1;fontSize=10;strokeWidth=0.2;" vertex="1" parent="1">
          <mxGeometry x="460" y="470" width="60" height="20" as="geometry" />
        </mxCell>
        <mxCell id="AaakfXUF925wmJockzb4-41" value="社区资讯" style="rounded=0;whiteSpace=wrap;html=1;fontSize=10;strokeWidth=0.2;" vertex="1" parent="1">
          <mxGeometry x="535" y="470" width="60" height="20" as="geometry" />
        </mxCell>
        <mxCell id="AaakfXUF925wmJockzb4-42" value="&lt;font style=&quot;font-size: 10px;&quot;&gt;人堆联盟&lt;br&gt;&lt;/font&gt;&lt;font style=&quot;font-size: 8px;&quot;&gt;（生态伙伴层）&lt;/font&gt;" style="rounded=0;whiteSpace=wrap;html=1;verticalAlign=bottom;fillColor=#eeeeee;strokeColor=#36393d;strokeWidth=0.2;" vertex="1" parent="1">
          <mxGeometry x="63" y="250" width="68" height="260" as="geometry" />
        </mxCell>
        <mxCell id="AaakfXUF925wmJockzb4-43" value="价格制定" style="rounded=0;whiteSpace=wrap;html=1;fontSize=9;strokeWidth=0.2;" vertex="1" parent="1">
          <mxGeometry x="67" y="280" width="60" height="20" as="geometry" />
        </mxCell>
        <mxCell id="AaakfXUF925wmJockzb4-44" value="行业协会" style="rounded=0;whiteSpace=wrap;html=1;fontSize=9;strokeWidth=0.2;" vertex="1" parent="1">
          <mxGeometry x="67" y="327" width="60" height="20" as="geometry" />
        </mxCell>
        <mxCell id="AaakfXUF925wmJockzb4-45" value="行业信用平台" style="rounded=0;whiteSpace=wrap;html=1;fontSize=9;strokeWidth=0.2;" vertex="1" parent="1">
          <mxGeometry x="67" y="374" width="60" height="20" as="geometry" />
        </mxCell>
        <mxCell id="AaakfXUF925wmJockzb4-46" value="联盟选举制度" style="rounded=0;whiteSpace=wrap;html=1;fontSize=9;strokeWidth=0.2;" vertex="1" parent="1">
          <mxGeometry x="67" y="410" width="60" height="20" as="geometry" />
        </mxCell>
        <mxCell id="AaakfXUF925wmJockzb4-47" value="政商关系" style="rounded=0;whiteSpace=wrap;html=1;fontSize=9;strokeWidth=0.2;" vertex="1" parent="1">
          <mxGeometry x="67" y="450" width="59" height="20" as="geometry" />
        </mxCell>
        <mxCell id="AaakfXUF925wmJockzb4-49" value="产能投放" style="edgeStyle=orthogonalEdgeStyle;rounded=0;orthogonalLoop=1;jettySize=auto;html=1;exitX=0.169;exitY=1.018;exitDx=0;exitDy=0;exitPerimeter=0;strokeWidth=0.5;fontSize=8;" edge="1" parent="1" source="AaakfXUF925wmJockzb4-8">
          <mxGeometry relative="1" as="geometry">
            <mxPoint x="489" y="440" as="targetPoint" />
          </mxGeometry>
        </mxCell>
        <mxCell id="AaakfXUF925wmJockzb4-50" value="人堆大图：SaaS+平台" style="text;html=1;align=center;verticalAlign=middle;resizable=0;points=[];autosize=1;strokeColor=none;fillColor=none;" vertex="1" parent="1">
          <mxGeometry x="346" y="210" width="138" height="26" as="geometry" />
        </mxCell>
        <mxCell id="AaakfXUF925wmJockzb4-51" value="互相赋能" style="shape=flexArrow;endArrow=classic;startArrow=classic;html=1;rounded=0;entryX=0.5;entryY=1;entryDx=0;entryDy=0;exitX=0.5;exitY=0;exitDx=0;exitDy=0;endSize=1;startSize=1;strokeWidth=1;fontSize=7;" edge="1" parent="1" source="AaakfXUF925wmJockzb4-16" target="AaakfXUF925wmJockzb4-39">
          <mxGeometry width="100" height="100" relative="1" as="geometry">
            <mxPoint x="369" y="486" as="sourcePoint" />
            <mxPoint x="469" y="386" as="targetPoint" />
          </mxGeometry>
        </mxCell>
        <mxCell id="AaakfXUF925wmJockzb4-52" value="SaaS生态（行业数字化层）- 两大客户群体" style="rounded=0;whiteSpace=wrap;html=1;verticalAlign=top;fillColor=#f5f5f5;fontColor=#333333;strokeColor=#666666;fontSize=10;strokeWidth=0.2;" vertex="1" parent="1">
          <mxGeometry x="140" y="680" width="550" height="130" as="geometry" />
        </mxCell>
        <mxCell id="AaakfXUF925wmJockzb4-53" value="" style="verticalLabelPosition=bottom;sketch=0;html=1;fillColor=#282828;strokeColor=none;verticalAlign=top;pointerEvents=1;align=center;shape=mxgraph.cisco_safe.people_places_things_icons.icon9;" vertex="1" parent="1">
          <mxGeometry x="266.25" y="424" width="17.5" height="19" as="geometry" />
        </mxCell>
        <mxCell id="AaakfXUF925wmJockzb4-54" value="人堆交易员团队跟踪服务" style="text;html=1;align=center;verticalAlign=middle;resizable=0;points=[];autosize=1;strokeColor=none;fillColor=none;fontSize=6;" vertex="1" parent="1">
          <mxGeometry x="233" y="411" width="84" height="19" as="geometry" />
        </mxCell>
      </root>
    </mxGraphModel>
  </diagram>
</mxfile>
